HIERARCHY
ROOT hip
{
	OFFSET 0.000000 0.000000 0.000000 
	CHANNELS 6 Xposition Yposition Zposition Xrotation Zrotation Yrotation
	JOINT abdomen
	{
		OFFSET 0.000000 3.402643 0.000000 
		CHANNELS 3 Xrotation Zrotation Yrotation
		JOINT chest
		{
			OFFSET 0.000000 8.438565 -0.680529 
			CHANNELS 3 Xrotation Zrotation Yrotation
			JOINT neck
			{
				OFFSET 0.000000 10.207942 -0.272212 
				CHANNELS 3 Xrotation Zrotation Yrotation
				JOINT head
				{
					OFFSET 0.000000 3.130431 0.000000 
					CHANNELS 3 Xrotation Zrotation Yrotation
					End Site
					{
						OFFSET 0.000000 3.130435 0.000000 
					}
				}
			}
			JOINT lCollar
			{
				OFFSET 3.470700 6.669187 -0.816635 
				CHANNELS 3 Yrotation Zrotation Xrotation
				JOINT lShldr
				{
					OFFSET 3.198488 0.000000 0.000000 
					CHANNELS 3 Zrotation Yrotation Xrotation
					JOINT lForeArm
					{
						OFFSET 10.139888 0.000000 0.000000 
						CHANNELS 3 Yrotation Zrotation Xrotation
						JOINT lHand
						{
							OFFSET 8.370511 0.000000 0.000000 
							CHANNELS 3 Zrotation Yrotation Xrotation
							End Site
							{
								OFFSET 4.083176 0.000000 0.000000 
							}
						}
					}
				}
			}
			JOINT rCollar
			{
				OFFSET -3.470700 6.669187 -0.816635 
				CHANNELS 3 Yrotation Zrotation Xrotation
				JOINT rShldr
				{
					OFFSET -3.198488 0.000000 0.000000 
					CHANNELS 3 Zrotation Yrotation Xrotation
					JOINT rForeArm
					{
						OFFSET -10.139888 0.000000 0.000000 
						CHANNELS 3 Yrotation Zrotation Xrotation
						JOINT rHand
						{
							OFFSET -8.370511 0.000000 0.000000 
							CHANNELS 3 Zrotation Yrotation Xrotation
							End Site
							{
								OFFSET -4.083176 0.000000 0.000000 
							}
						}
					}
				}
			}
		}
	}
	JOINT lThigh
	{
		OFFSET 5.308129 -1.633274 1.361059 
		CHANNELS 3 Xrotation Zrotation Yrotation
		JOINT lShin
		{
			OFFSET -2.041588 -20.007561 0.000000 
			CHANNELS 3 Xrotation Zrotation Yrotation
			JOINT lFoot
			{
				OFFSET 0.000000 -19.190928 -1.224953 
				CHANNELS 3 Xrotation Yrotation Zrotation
				End Site
				{
					OFFSET 0.000000 -2.449906 4.627600 
				}
			}
		}
	}
	JOINT rThigh
	{
		OFFSET -5.308129 -1.633274 1.361059 
		CHANNELS 3 Xrotation Zrotation Yrotation
		JOINT rShin
		{
			OFFSET 2.041588 -20.007561 0.000000 
			CHANNELS 3 Xrotation Zrotation Yrotation
			JOINT rFoot
			{
				OFFSET 0.000000 -19.190928 -1.224953 
				CHANNELS 3 Xrotation Yrotation Zrotation
				End Site
				{
					OFFSET 0.000000 -2.449906 4.627600 
				}
			}
		}
	}
}
MOTION
Frames: 10
Frame Time: 0.016667
-24.103851 33.330303 52.299667 55.031101 16.809000 -16.020300 -19.968300 3.106500 3.142200 27.795601 3.342350 2.319240 -26.972099 7.934140 -3.775570 -2.000980 9.161400 0.514881 2.000000 -2.000000 0.000000 96.459999 148.033997 1.206350 24.619400 -0.339136 0.057015 0.068873 -0.066590 -161.442993 -2.000000 2.000000 0.000000 77.241798 28.238300 156.455994 -62.217300 0.278576 0.120962 179.899994 179.888000 -1.238070 -96.089264 5.203787 30.325012 73.019295 -1.068697 5.040267 -4.469879 -8.575924 -4.609674 -48.649876 -10.990045 -15.941745 43.268845 -1.515494 -3.435522 -19.398418 -5.077696 -4.617893 
-25.216110 33.738201 54.776947 54.374401 15.357400 -15.683600 -19.907801 2.562110 2.022050 27.577400 4.187230 1.726180 -27.030199 9.202360 -3.013300 -2.171230 9.294830 0.970366 2.000000 -2.000000 0.000000 94.006401 146.522995 -3.748300 23.281500 -0.340432 0.054097 0.068255 -0.065219 -160.906006 -2.000000 2.000000 0.000000 82.253799 22.644800 155.404007 -67.774002 0.266564 0.126565 179.903000 179.891006 0.246317 -94.356140 4.890912 34.397175 64.451416 -0.266174 4.712869 -4.709287 -12.050135 -5.140414 -42.057430 -8.674321 -13.505959 37.327461 -1.896581 -2.997778 -12.446300 -3.805075 -3.561274 
-26.227942 34.147900 57.246479 52.111500 12.457700 -15.968900 -19.067200 1.625830 1.555680 27.197701 3.171980 1.209480 -27.713301 9.645730 -4.121350 -2.605920 9.249130 0.299973 2.000000 -2.000000 0.000000 -86.654900 32.627102 171.820007 21.679899 -0.341893 0.050566 0.068000 -0.064644 -160.681000 -2.000000 2.000000 0.000000 88.000000 17.951000 153.820999 -72.022003 0.257047 0.130049 179.895996 179.873993 -3.191170 -90.771835 4.377190 36.945461 56.789066 0.358910 4.350101 -4.887135 -14.042806 -5.464442 -34.040607 -5.461108 -10.643103 32.196518 -2.290823 -2.565294 -2.627744 -2.578547 -2.510667 
-27.186075 34.484352 59.754543 49.991402 9.558670 -16.366301 -18.488600 1.397350 0.613334 26.591600 3.224260 0.692262 -23.004999 12.641300 -3.154420 -0.698073 10.229300 1.065870 2.000000 -2.000000 0.000000 -89.060699 30.971901 165.598007 19.834200 -0.343454 0.046449 0.066489 -0.061096 -159.304993 -2.000000 2.000000 0.000000 91.394997 12.990900 153.427002 -75.557198 0.248948 0.132404 -0.122062 0.130890 168.410004 -86.776825 3.479079 37.851955 50.355503 0.753413 4.036164 -2.413487 -14.441917 -4.982340 -27.796116 -2.294333 -6.982223 29.663549 -2.684671 -2.274618 6.192500 -2.167179 -1.703485 
-28.041418 34.647694 62.259914 47.788200 7.324190 -17.175400 -17.177900 0.565783 0.314886 27.339100 2.220690 0.342349 -23.497200 13.919700 -2.935140 -0.879977 10.470300 1.363910 2.000000 -2.000000 0.000000 -90.163300 27.149000 159.283005 18.486500 -0.344509 0.043411 0.065439 -0.058483 -158.298996 -2.000000 2.000000 0.000000 94.675201 9.357030 153.906998 -78.389198 0.242365 0.133927 -0.135577 0.139489 162.688004 -82.689812 2.867286 38.188580 46.510792 0.963729 3.842111 -1.465200 -13.069091 -4.749134 -23.912548 0.093101 -2.730821 31.672079 -3.018087 -2.262893 11.668013 -2.407407 -0.903700 
-28.870476 34.614666 64.728210 47.076900 5.566640 -17.414200 -17.002199 0.322481 -0.139373 27.162600 2.095380 0.076790 -22.393101 14.463900 -2.027300 -0.483376 10.524000 1.833300 2.000000 -2.000000 0.000000 -91.334198 23.444300 153.192001 17.002100 -0.345589 0.040038 0.063343 -0.062580 -156.139999 -2.000000 2.000000 0.000000 96.275803 4.942530 154.102997 -80.713402 0.236912 0.134933 -0.148410 0.146037 157.541000 -80.237846 1.958928 37.613430 46.806492 0.920596 3.871831 -3.157892 -5.771873 -4.905564 -23.162073 1.989575 -1.469000 36.697922 -2.959010 -2.528233 10.880708 -0.508283 -0.875142 
-29.663696 34.472897 67.116745 47.151199 4.239440 -17.532801 -17.416901 0.281053 -1.416700 26.861799 2.562550 -0.507817 -22.197901 15.742800 -0.963599 -0.758385 11.016900 2.435880 2.000000 -2.000000 0.000000 -93.491203 20.140200 146.912994 16.220900 -0.346121 0.038252 0.051776 -0.047333 -154.080002 -2.000000 2.000000 0.000000 96.453003 -0.315480 155.994995 -83.037598 0.231422 0.135717 -0.168957 0.163501 149.699005 -78.774872 0.802538 33.543423 50.310890 0.675868 4.090144 -7.238134 1.027734 -4.199893 -24.549498 3.173987 -2.653681 43.506302 -2.603393 -2.967263 9.419513 3.202684 -1.215096 
-30.372438 34.328541 69.533585 48.098598 3.370150 -17.657499 -17.869101 1.039630 -2.589900 26.971500 4.328300 -0.812582 -20.600800 15.366200 0.163958 -0.120067 10.888600 2.918520 2.000000 -2.000000 0.000000 -95.957901 15.214500 139.815002 15.058800 -0.346869 0.035581 0.048018 -0.032775 -148.709000 -2.000000 2.000000 0.000000 94.960800 -4.703700 157.567993 -85.029800 0.226694 0.136211 -0.184838 0.167372 143.860001 -78.060402 -0.242958 28.289089 53.872623 0.426179 4.290874 -8.612824 -3.774557 -4.624621 -28.103981 3.770310 -4.318009 51.808556 -2.055039 -3.439658 8.233547 5.044271 -1.317666 
-30.963675 34.154530 71.874039 48.763599 2.506140 -17.798201 -17.392099 -0.759281 -1.775260 28.008499 0.755286 -0.936250 -22.137501 16.287600 -0.593727 -0.507495 10.854700 2.751210 2.000000 -2.000000 0.000000 -92.101501 8.459780 136.029999 13.535300 -0.347766 0.032059 0.045679 -0.018283 -143.464996 -2.000000 2.000000 0.000000 98.926399 -7.301760 157.746002 -87.588402 0.220602 0.136605 -0.194560 0.168916 140.343994 -76.758774 -1.225209 22.966902 56.512558 0.208687 4.440360 -12.547233 -1.075832 -3.818215 -32.535900 3.996981 -5.910634 61.445885 -1.284635 -3.916900 7.407569 3.559850 -1.241695 
-31.488516 33.922325 74.125298 49.055401 2.036240 -17.820601 -17.068800 -1.260240 -1.917740 28.417999 -0.125760 -1.140430 -23.877300 16.763399 -0.871930 -1.066920 11.022300 2.853840 2.000000 -2.000000 0.000000 -91.146301 1.578200 132.067993 12.793100 -0.348170 0.030335 0.044693 -0.004376 -138.483994 -2.000000 2.000000 0.000000 99.747902 -8.953680 158.436005 -90.049301 0.214740 0.117195 -0.202721 0.159979 137.414001 -75.174828 -2.177998 19.039003 58.777317 0.059294 4.532526 -15.257760 0.674322 -3.002494 -37.805313 3.804197 -6.338837 72.112915 -0.395257 -4.317575 7.649305 -1.455199 -1.095174 
